[h264 @ 0x561def51ed80] Reinit context to 1280x720, pix_fmt: yuv420p
Input #0, mov,mp4,m4a,3gp,3g2,mj2, from '/var/www/html/project/media/video/original/video_2024-11-12_18-28-40.mp4':
  Metadata:
    major_brand     : isom
    minor_version   : 512
    compatible_brands: isomiso2avc1mp41
    creation_time   : 2024-11-12T17:27:43.000000Z
  Duration: 00:00:21.09, start: 0.000000, bitrate: 3970 kb/s
    Stream #0:0(eng): Video: h264 (High), 1 reference frame (avc1 / 0x31637661), yuv420p(tv, smpte170m/bt470bg/smpte170m, left), 1272x720 (1280x720), 3837 kb/s, 30.02 fps, 30 tbr, 90k tbn, 180k tbc (default)
    Metadata:
      creation_time   : 2024-11-12T17:27:43.000000Z
      handler_name    : VideoHandle
    Stream #0:1(eng): Audio: aac (LC) (mp4a / 0x6134706D), 44100 Hz, stereo, fltp, 125 kb/s (default)
    Metadata:
      creation_time   : 2024-11-12T17:27:43.000000Z
      handler_name    : SoundHandle
[h264 @ 0x561def55eec0] Reinit context to 1280x720, pix_fmt: yuv420p
Input #1, mov,mp4,m4a,3gp,3g2,mj2, from '/var/www/html/project/static/images/templates/Codino.mp4':
  Metadata:
    major_brand     : mp42
    minor_version   : 1
    compatible_brands: isommp41mp42
    creation_time   : 2021-07-11T07:02:58.000000Z
  Duration: 00:00:02.00, start: 0.000000, bitrate: 1007 kb/s
    Stream #1:0(ita): Audio: aac (LC) (mp4a / 0x6134706D), 44100 Hz, stereo, fltp, 102 kb/s (default)
    Metadata:
      creation_time   : 2021-07-11T07:02:58.000000Z
      handler_name    : Core Media Audio
    Stream #1:1(und): Video: h264 (High), 1 reference frame (avc1 / 0x31637661), yuv420p(tv, bt709, progressive, left), 1280x720 [SAR 1:1 DAR 16:9], 813 kb/s, 25 fps, 25 tbr, 25k tbn, 50k tbc (default)
    Metadata:
      creation_time   : 2021-07-11T07:02:58.000000Z
      handler_name    : Core Media Video
[Parsed_scale_0 @ 0x561def65f7c0] w:1280 h:720 flags:'bilinear' interl:0
[Parsed_scale_2 @ 0x561def5ce300] w:1280 h:720 flags:'bilinear' interl:0
Stream mapping:
  Stream #0:0 (h264) -> scale
  Stream #0:1 (aac) -> concat:in0:a0
  Stream #1:0 (aac) -> concat:in1:a0
  Stream #1:1 (h264) -> scale
  concat:out:v0 -> Stream #0:0 (libx264)
  concat:out:a0 -> Stream #0:1 (aac)
Press [q] to stop, [?] for help
[h264 @ 0x561def5bc2c0] Reinit context to 1280x720, pix_fmt: yuv420p
[h264 @ 0x561def982a40] Reinit context to 1280x720, pix_fmt: yuv420p
[Parsed_scale_0 @ 0x561df07c0c40] w:1280 h:720 flags:'bilinear' interl:0
[Parsed_scale_2 @ 0x561df07c8f40] w:1280 h:720 flags:'bilinear' interl:0
[graph 0 input from stream 0:0 @ 0x561df07cc200] w:1272 h:720 pixfmt:yuv420p tb:1/90000 fr:30/1 sar:0/1 sws_param:flags=2
[graph 0 input from stream 1:1 @ 0x561df07cd280] w:1280 h:720 pixfmt:yuv420p tb:1/25000 fr:25/1 sar:1/1 sws_param:flags=2
[graph_0_in_0_1 @ 0x561df07ce240] tb:1/44100 samplefmt:fltp samplerate:44100 chlayout:0x3
[graph_0_in_1_0 @ 0x561df07cf380] tb:1/44100 samplefmt:fltp samplerate:44100 chlayout:0x3
[Parsed_scale_0 @ 0x561df07c0c40] w:1272 h:720 fmt:yuv420p sar:0/1 -> w:1280 h:720 fmt:yuv420p sar:0/1 flags:0x2
[Parsed_setsar_1 @ 0x561df07c8a80] w:1280 h:720 sar:0/1 dar:16/9 -> sar:1/1 dar:16/9
[Parsed_scale_2 @ 0x561df07c8f40] w:1280 h:720 fmt:yuv420p sar:1/1 -> w:1280 h:720 fmt:yuv420p sar:1/1 flags:0x2
[Parsed_setsar_3 @ 0x561df07c93c0] w:1280 h:720 sar:1/1 dar:16/9 -> sar:1/1 dar:16/9
[libx264 @ 0x561def5caa40] using SAR=1/1
[libx264 @ 0x561def5caa40] using cpu capabilities: MMX2 SSE2Fast SSSE3 SSE4.2 AVX FMA3 BMI2 AVX2
[libx264 @ 0x561def5caa40] profile High, level 3.1
[libx264 @ 0x561def5caa40] 264 - core 155 r2917 0a84d98 - H.264/MPEG-4 AVC codec - Copyleft 2003-2018 - http://www.videolan.org/x264.html - options: cabac=1 ref=1 deblock=1:0:0 analyse=0x3:0x113 me=hex subme=2 psy=1 psy_rd=1.00:0.00 mixed_ref=0 me_range=16 chroma_me=1 trellis=0 8x8dct=1 cqm=0 deadzone=21,11 fast_pskip=1 chroma_qp_offset=0 threads=22 lookahead_threads=5 sliced_threads=0 nr=0 decimate=1 interlaced=0 bluray_compat=0 constrained_intra=0 bframes=3 b_pyramid=2 b_adapt=1 b_bias=0 direct=1 weightb=1 open_gop=0 weightp=1 keyint=250 keyint_min=25 scenecut=40 intra_refresh=0 rc_lookahead=10 rc=crf mbtree=1 crf=18.0 qcomp=0.60 qpmin=0 qpmax=69 qpstep=4 ip_ratio=1.40 aq=1:1.00
Output #0, mp4, to '/var/www/html/project/media/video/watermarks/video_2024-11-12_18-28-40.mp4':
  Metadata:
    major_brand     : isom
    minor_version   : 512
    compatible_brands: isomiso2avc1mp41
    encoder         : Lavf58.29.100
    Stream #0:0: Video: h264 (libx264), 1 reference frame (avc1 / 0x31637661), yuv420p(progressive), 1280x720 [SAR 1:1 DAR 16:9], q=-1--1, 30 fps, 15360 tbn, 30 tbc (default)
    Metadata:
      encoder         : Lavc58.54.100 libx264
    Side data:
      cpb: bitrate max/min/avg: 0/0/0 buffer size: 0 vbv_delay: -1
    Stream #0:1: Audio: aac (LC) (mp4a / 0x6134706D), 44100 Hz, stereo, fltp, delay 1024, 128 kb/s (default)
    Metadata:
      encoder         : Lavc58.54.100 aac
[Parsed_concat_4 @ 0x561df07ca280] EOF on in0:v0, 1 streams left in segment.
[Parsed_concat_4 @ 0x561df07ca280] EOF on in0:a0, 0 streams left in segment.
[Parsed_concat_4 @ 0x561df07ca280] Segment finished at pts=21094324
[Parsed_concat_4 @ 0x561df07ca280] EOF on in1:a0, 1 streams left in segment.
[Parsed_concat_4 @ 0x561df07ca280] EOF on in1:v0, 0 streams left in segment.
[Parsed_concat_4 @ 0x561df07ca280] Segment finished at pts=23113009
No more output streams to write to, finishing.
frame=  683 fps= 84 q=-1.0 Lsize=   14485kB time=00:00:23.12 bitrate=5130.9kbits/s speed=2.86x    
[AVIOContext @ 0x561def51d180] Statistics: 0 seeks, 16 writeouts
video:14104kB audio:356kB subtitle:0kB other streams:0kB global headers:0kB muxing overhead: 0.176494%
Input file #0 (/var/www/html/project/media/video/original/video_2024-11-12_18-28-40.mp4):
  Input stream #0:0 (video): 633 packets read (10116848 bytes); 633 frames decoded; 
  Input stream #0:1 (audio): 908 packets read (330984 bytes); 908 frames decoded (929792 samples); 
  Total: 1541 packets (10447832 bytes) demuxed
Input file #1 (/var/www/html/project/static/images/templates/Codino.mp4):
  Input stream #1:0 (audio): 89 packets read (26579 bytes); 87 frames decoded (89024 samples); 
  Input stream #1:1 (video): 50 packets read (203365 bytes); 50 frames decoded; 
  Total: 139 packets (229944 bytes) demuxed
Output file #0 (/var/www/html/project/media/video/watermarks/video_2024-11-12_18-28-40.mp4):
  Output stream #0:0 (video): 683 frames encoded; 683 packets muxed (14442618 bytes); 
  Output stream #0:1 (audio): 996 frames encoded (1019282 samples); 997 packets muxed (364087 bytes); 
  Total: 1680 packets (14806705 bytes) muxed
[AVIOContext @ 0x561def5ce500] Statistics: 2 seeks, 60 writeouts
[libx264 @ 0x561def5caa40] frame I:5     Avg QP:14.03  size:108589
[libx264 @ 0x561def5caa40] frame P:204   Avg QP:19.04  size: 44969
[libx264 @ 0x561def5caa40] frame B:474   Avg QP:23.41  size:  9969
[libx264 @ 0x561def5caa40] consecutive B-frames:  5.1%  5.3%  5.3% 84.3%
[libx264 @ 0x561def5caa40] mb I  I16..4: 28.7% 10.2% 61.1%
[libx264 @ 0x561def5caa40] mb P  I16..4:  4.2%  5.3%  3.2%  P16..4: 30.7% 21.1% 17.9%  0.0%  0.0%    skip:17.6%
[libx264 @ 0x561def5caa40] mb B  I16..4:  0.8%  0.4%  0.0%  B16..8: 25.9% 12.6%  2.1%  direct:13.8%  skip:44.3%  L0:33.4% L1:38.9% BI:27.7%
[libx264 @ 0x561def5caa40] 8x8 transform intra:36.1% inter:36.8%
[libx264 @ 0x561def5caa40] coded y,uvDC,uvAC intra: 49.8% 55.4% 21.2% inter: 24.9% 13.9% 0.9%
[libx264 @ 0x561def5caa40] i16 v,h,dc,p: 31% 52% 10%  6%
[libx264 @ 0x561def5caa40] i8 v,h,dc,ddl,ddr,vr,hd,vl,hu: 31% 34% 21%  1%  2%  3%  3%  2%  3%
[libx264 @ 0x561def5caa40] i4 v,h,dc,ddl,ddr,vr,hd,vl,hu: 27% 29% 10%  4%  5%  5%  6%  4%  9%
[libx264 @ 0x561def5caa40] i8c dc,h,v,p: 49% 27% 19%  5%
[libx264 @ 0x561def5caa40] Weighted P-Frames: Y:11.3% UV:1.0%
[libx264 @ 0x561def5caa40] kb/s:4994.33
[aac @ 0x561def6ad3c0] Qavg: 2429.716
[AVIOContext @ 0x561def526080] Statistics: 10519240 bytes read, 2 seeks
[AVIOContext @ 0x561def534400] Statistics: 1530915 bytes read, 42 seeks
